<svg width="873" height="572" viewBox="0 0 873 572" fill="none" xmlns="http://www.w3.org/2000/svg">
<line y1="-6" x2="492.248" y2="-6" transform="matrix(0.944646 -0.32809 0.355475 0.934686 84 173.502)" stroke="#C3073F" stroke-width="12"/>
<line y1="-6" x2="251.844" y2="-6" transform="matrix(0.937087 0.349097 -0.377712 0.925923 547 12)" stroke="#C3073F" stroke-width="12"/>
<line y1="-6" x2="101.302" y2="-6" transform="matrix(-0.00987149 0.999951 -0.999959 -0.00901502 776 93.2286)" stroke="#C3073F" stroke-width="12"/>
<line y1="-6" x2="248.013" y2="-6" transform="matrix(-0.9435 -0.331371 0.358954 -0.933355 783 194.526)" stroke="#C3073F" stroke-width="12"/>
<line y1="-6" x2="347.077" y2="-6" transform="matrix(-0.964988 0.262295 -0.285269 -0.958447 548 113.297)" stroke="#C3073F" stroke-width="12"/>
<line y1="-6" x2="90.7905" y2="-6" transform="matrix(-0.0104638 0.999945 -0.999954 -0.00955581 214 203.126)" stroke="#C3073F" stroke-width="12"/>
<line y1="-6" x2="341.521" y2="-6" transform="matrix(0.983834 -0.179082 0.195475 0.980709 213 298.689)" stroke="#C3073F" stroke-width="12"/>
<line y1="-6" x2="230.996" y2="-6" transform="matrix(0.978373 0.20685 -0.225545 0.974233 549 237.529)" stroke="#C3073F" stroke-width="12"/>
<line y1="-6" x2="292.439" y2="-6" transform="matrix(-0.0102586 0.999947 -0.999956 -0.00936861 775 278.621)" stroke="#C3073F" stroke-width="12"/>
<line x1="553" y1="232.751" x2="553" y2="571.044" stroke="#C3073F" stroke-width="12"/>
<line x1="85" y1="165.857" x2="85" y2="391.386" stroke="#C3073F" stroke-width="12"/>
<line y1="-6" x2="403.692" y2="-6" transform="matrix(0.990855 -0.134932 0.147485 0.989064 79 391.386)" stroke="#C3073F" stroke-width="12"/>
<line y1="-6" x2="127.103" y2="-6" transform="matrix(0.00786764 0.999969 -0.999974 0.00718502 479 327.358)" stroke="#C3073F" stroke-width="12"/>
<line y1="-6" x2="407.483" y2="-6" transform="matrix(-0.993907 0.110225 -0.120552 -0.992707 489 445.857)" stroke="#C3073F" stroke-width="12"/>
<line x1="91" y1="489.816" x2="91" y2="571.044" stroke="#C3073F" stroke-width="12"/>
<line y1="566" x2="873" y2="566" stroke="#C3073F" stroke-width="12"/>
<line y1="-4" x2="103.227" y2="-4" transform="matrix(0.0192727 0.999814 -0.999845 0.0176011 137 379.918)" stroke="#C3073F" stroke-width="8"/>
<line x1="720" y1="178.28" x2="720" y2="268.109" stroke="#C3073F" stroke-width="8"/>
</svg>
