<svg xmlns="http://www.w3.org/2000/svg" viewBox="0 0 422.42 162.48">
  <defs>
    <style>
      .cls-1 {
        fill: #821b1f;
      }
    </style>
  </defs>
  <title>K</title>
  <g id="Layer_2" data-name="Layer 2">
    <g id="Layer_1-2" data-name="Layer 1">
      <path
        class="cls-1"
        d="M148.8.66c-7.35,7.24-14.32,14-21.21,20.9Q98.47,50.67,69.37,79.8c-1.27,1.26-1.3,1.89,0,3.18q38.66,38.6,77.21,77.3c.57.57,1.38,1,1.61,2.13H135.89c-10.75,0-21.5,0-32.24,0a4.37,4.37,0,0,1-3.44-1.43Q61.34,122,22.37,83c-1.25-1.25-1.15-1.83,0-3q39-39.08,77.9-78.25A3.61,3.61,0,0,1,103.07.47c14.77,0,29.54,0,44.31,0C147.6.47,147.82.53,148.8.66Z"
      />
      <path
        class="cls-1"
        d="M.06,81.47C.06,55.33.09,29.2,0,3.07,0,.86.66.46,2.69.48,13.12.58,23.56.56,34,.49c1.68,0,2.37.23,2.36,2.2q-.13,28.18,0,56.36A4.14,4.14,0,0,1,35,62.29c-6,6-12,12.06-18.05,18-1,1-1,1.5,0,2.48,6,5.92,11.91,11.92,17.9,17.85a4.37,4.37,0,0,1,1.49,3.4q-.08,28.07,0,56.13c0,1.89-.56,2.27-2.33,2.25q-15.89-.12-31.78,0c-1.92,0-2.23-.62-2.23-2.35Q.1,120.78.06,81.47Z"
      />
    </g>
  </g>
</svg>
