<svg xmlns="http://www.w3.org/2000/svg" viewBox="0 0 422.42 162.48">
  <defs>
    <style>
      .cls-1 {
        fill: #821b1f;
      }
    </style>
  </defs>
  <title>Asset 1</title>
  <g id="Layer_2" data-name="Layer 2">
    <g id="Layer_1-2" data-name="Layer 1">
      <path
        class="cls-1"
        d="M303.54,81q0-39.33,0-78.66c0-1.93.45-2.4,2.39-2.39,18.64.09,37.28,0,55.92.09,10,0,19.88,1.12,29.4,4.49,15.67,5.55,25.39,16.54,29.39,32.53a58.63,58.63,0,0,1-3.48,39c-6.55,14.71-18.71,22.72-33.74,26.94a78.77,78.77,0,0,1-20.83,2.87c-6.42,0-12.84,0-19.26.06-1.1,0-1.86,0-1.84-1.51q.12-12.53,0-25.06c0-1.49.66-1.57,1.82-1.57,6.81,0,13.62-.16,20.42.05,16.54.5,23.83-9.9,24.77-23.61a31.94,31.94,0,0,0-2.15-15c-3.08-7.19-8.68-11.07-16.34-11.31-10.35-.33-20.72-.09-31.09-.15-1.2,0-1.6.31-1.58,1.55.07,3.48,0,7,0,10.44q0,59.86.08,119.72c0,1.92-.28,2.63-2.46,2.6-9.67-.14-19.33-.12-29,0-1.9,0-2.41-.41-2.4-2.37Q303.6,120.38,303.54,81Z"
      />
      <path
        class="cls-1"
        d="M193.76,60.71c0,33.12,0,66,.06,98.86,0,2.38-.6,2.92-2.92,2.88-9.59-.14-19.18-.1-28.77,0-1.65,0-2-.46-2-2.06q.06-78.89,0-157.77c0-1.81.54-2.12,2.2-2.11q16.24.09,32.48-.06a2.7,2.7,0,0,1,2.84,1.69q25.62,49.52,51.34,99a6.85,6.85,0,0,1,.78,3.31c0,18.56,0,37.12-.05,55.68,0,.76.74,2-.69,2.29a2.69,2.69,0,0,1-3.35-1.55q-14.54-28.55-29.26-57Q205.8,83.26,195.21,62.7C194.87,62.06,194.75,61.24,193.76,60.71Z"
      />
      <path
        class="cls-1"
        d="M148.8.66c-7.35,7.24-14.32,14-21.21,20.9Q98.47,50.67,69.37,79.8c-1.27,1.26-1.3,1.89,0,3.18q38.66,38.6,77.21,77.3c.57.57,1.38,1,1.61,2.13H135.89c-10.75,0-21.5,0-32.24,0a4.37,4.37,0,0,1-3.44-1.43Q61.34,122,22.37,83c-1.25-1.25-1.15-1.83,0-3q39-39.08,77.9-78.25A3.61,3.61,0,0,1,103.07.47c14.77,0,29.54,0,44.31,0C147.6.47,147.82.53,148.8.66Z"
      />
      <path
        class="cls-1"
        d="M253.94,81.44q0-39.2,0-78.4c0-2,.35-2.6,2.48-2.57,9.74.14,19.48.09,29.23,0,1.58,0,2.09.36,2.09,2q-.07,78.87,0,157.73c0,1.75-.46,2.2-2.19,2.18-9.82-.09-19.64-.12-29.46,0-2.08,0-2.14-.81-2.14-2.39q0-39.32,0-78.63Z"
      />
      <path
        class="cls-1"
        d="M.06,81.47C.06,55.33.09,29.2,0,3.07,0,.86.66.46,2.69.48,13.12.58,23.56.56,34,.49c1.68,0,2.37.23,2.36,2.2q-.13,28.18,0,56.36A4.14,4.14,0,0,1,35,62.29c-6,6-12,12.06-18.05,18-1,1-1,1.5,0,2.48,6,5.92,11.91,11.92,17.9,17.85a4.37,4.37,0,0,1,1.49,3.4q-.08,28.07,0,56.13c0,1.89-.56,2.27-2.33,2.25q-15.89-.12-31.78,0c-1.92,0-2.23-.62-2.23-2.35Q.1,120.78.06,81.47Z"
      />
    </g>
  </g>
</svg>
