<svg xmlns="http://www.w3.org/2000/svg" viewBox="0 0 422.42 162.48">
  <defs>
    <style>
      .cls-1 {
        fill: #821b1f;
      }
    </style>
  </defs>
  <title>N</title>
  <g id="Layer_2" data-name="Layer 2">
    <g id="Layer_1-2" data-name="Layer 1">

      <path
        class="cls-1"
        d="M193.76,60.71c0,33.12,0,66,.06,98.86,0,2.38-.6,2.92-2.92,2.88-9.59-.14-19.18-.1-28.77,0-1.65,0-2-.46-2-2.06q.06-78.89,0-157.77c0-1.81.54-2.12,2.2-2.11q16.24.09,32.48-.06a2.7,2.7,0,0,1,2.84,1.69q25.62,49.52,51.34,99a6.85,6.85,0,0,1,.78,3.31c0,18.56,0,37.12-.05,55.68,0,.76.74,2-.69,2.29a2.69,2.69,0,0,1-3.35-1.55q-14.54-28.55-29.26-57Q205.8,83.26,195.21,62.7C194.87,62.06,194.75,61.24,193.76,60.71Z"
      />
            <path
        class="cls-1"
        d="M253.94,81.44q0-39.2,0-78.4c0-2,.35-2.6,2.48-2.57,9.74.14,19.48.09,29.23,0,1.58,0,2.09.36,2.09,2q-.07,78.87,0,157.73c0,1.75-.46,2.2-2.19,2.18-9.82-.09-19.64-.12-29.46,0-2.08,0-2.14-.81-2.14-2.39q0-39.32,0-78.63Z"
      />
    </g>
  </g>
</svg>
