<svg xmlns="http://www.w3.org/2000/svg" viewBox="0 0 422.42 162.48">
  <defs>
    <style>
      .cls-1 {
        fill: #821b1f;
      }
    </style>
  </defs>
  <title>P</title>
  <g id="Layer_2" data-name="Layer 2">
    <g id="Layer_1-2" data-name="Layer 1">
      <path
        class="cls-1"
        d="M303.54,81q0-39.33,0-78.66c0-1.93.45-2.4,2.39-2.39,18.64.09,37.28,0,55.92.09,10,0,19.88,1.12,29.4,4.49,15.67,5.55,25.39,16.54,29.39,32.53a58.63,58.63,0,0,1-3.48,39c-6.55,14.71-18.71,22.72-33.74,26.94a78.77,78.77,0,0,1-20.83,2.87c-6.42,0-12.84,0-19.26.06-1.1,0-1.86,0-1.84-1.51q.12-12.53,0-25.06c0-1.49.66-1.57,1.82-1.57,6.81,0,13.62-.16,20.42.05,16.54.5,23.83-9.9,24.77-23.61a31.94,31.94,0,0,0-2.15-15c-3.08-7.19-8.68-11.07-16.34-11.31-10.35-.33-20.72-.09-31.09-.15-1.2,0-1.6.31-1.58,1.55.07,3.48,0,7,0,10.44q0,59.86.08,119.72c0,1.92-.28,2.63-2.46,2.6-9.67-.14-19.33-.12-29,0-1.9,0-2.41-.41-2.4-2.37Q303.6,120.38,303.54,81Z"
      />
    </g>
  </g>
</svg>
