<?xml version="1.0" encoding="UTF-8" standalone="no"?>
<!-- Created with Inkscape (http://www.inkscape.org/) -->

<svg
   xmlns:dc="http://purl.org/dc/elements/1.1/"
   xmlns:cc="http://creativecommons.org/ns#"
   xmlns:rdf="http://www.w3.org/1999/02/22-rdf-syntax-ns#"
   xmlns:svg="http://www.w3.org/2000/svg"
   xmlns="http://www.w3.org/2000/svg"
   version="1.1"
   width="802"
   height="329"
   id="svg2">
  <defs
     id="defs4" />
  <metadata
     id="metadata7">
    <rdf:RDF>
      <cc:Work
         rdf:about="">
        <dc:format>image/svg+xml</dc:format>
        <dc:type
           rdf:resource="http://purl.org/dc/dcmitype/StillImage" />
        <dc:title></dc:title>
      </cc:Work>
    </rdf:RDF>
  </metadata>
  <g
     transform="translate(1,-365.00504)"
     id="layer2">
    <path
       d="m 577.2401,677.56823 c -32.29154,-24.17286 -99.22174,-74.55384 -99.22174,-74.55384 0,0 47.50373,-62.58379 70.2165,-93.44929 33.20727,-45.12699 110.5453,-67.91538 156.39257,-32.72701 30.71505,23.5742 94.39087,70.92399 94.39087,70.92399 0,0 -52.06322,70.34281 -77.89034,104.53655 -28.38084,37.57471 -101.49944,57.00075 -143.88786,25.2696 z"
       id="path2997-7-4-0-9"
       style="color:#000000;fill:#33cc33;fill-opacity:1;stroke:none;stroke-width:1.5;marker:none;visibility:visible;display:inline;overflow:visible;enable-background:accumulate" />
    <path
       d="M 236,238 1,238 1,1 235,1 z"
       transform="translate(-1,365.00504)"
       id="path2997"
       style="color:#000000;fill:#006633;fill-opacity:1;stroke:none;stroke-width:1.5;marker:none;visibility:visible;display:inline;overflow:visible;enable-background:accumulate" />
    <path
       d="m 124.5,66.75 24.5,66.5 -47.25,0 z m -64,124.5 20.25,0 15.5,-42.5 58.75,0 16.75,43.75 21.5,0 -58,-142.25 -20.5,0.25 z"
       transform="translate(-1,365.00504)"
       id="path3769"
       style="color:#000000;fill:#ffffff;fill-opacity:1;fill-rule:evenodd;stroke:none;stroke-width:1.5;marker:none;visibility:visible;display:inline;overflow:visible;enable-background:accumulate" />
    <path
       d="m 368.10974,603.00504 c -40.3369,0.0724 -124.10974,0 -124.10974,0 0,0 0.38305,-78.56965 0,-116.88939 -0.56004,-56.02547 47.58002,-120.70171 105.37141,-120.11061 38.71693,0.39601 118.06713,0 118.06713,0 0,0 0.63269,87.51166 0.52523,130.36304 -0.1181,47.08839 -46.90467,106.54188 -99.85403,106.63696 z"
       id="path2997-7"
       style="color:#000000;fill:#009933;fill-opacity:1;stroke:none;stroke-width:1.5;marker:none;visibility:visible;display:inline;overflow:visible;enable-background:accumulate" />
    <path
       d="m 395.80302,89.821131 18.91511,-0.883884 c -2.12132,-19.798989 -7.6014,-24.748737 -11.66726,-28.461048 -4.06587,-3.71231 -15.2028,-15.379572 -42.60319,-14.849242 -27.40039,0.53033 -50.20458,14.672466 -50.0278,39.774757 0.16559,23.513376 19.44543,32.880466 42.77996,38.890876 23.33452,6.0104 47.19938,8.66205 46.84582,26.87005 -0.30895,15.91084 -15.73312,24.74875 -34.64823,24.21841 -18.91511,-0.53033 -38.18377,-5.3033 -41.54252,-31.99658 -8.83884,0.88388 -18.73833,1.59099 -18.73833,1.59099 1.94454,35.53212 29.97604,48.2506 59.39697,48.43681 27.93072,0.17678 54.26534,-13.25822 54.09367,-42.95673 -0.17678,-30.58237 -27.75395,-37.47666 -51.79558,-42.95674 -28.04955,-6.39364 -37.29988,-9.545941 -37.29988,-24.218407 0,-14.672466 17.32412,-20.32932 32.17336,-20.152543 16.44002,0.195715 32.88046,6.894291 34.1179,26.693281 z"
       transform="translate(-1,365.00504)"
       id="path3772"
       style="color:#000000;fill:#ffffff;fill-opacity:1;fill-rule:evenodd;stroke:none;stroke-width:0.40000001;marker:none;visibility:visible;display:inline;overflow:visible;enable-background:accumulate" />
    <path
       d="M 597.0977,637.95161 C 558.37226,626.66396 478.00886,603.0077 478.00886,603.0077 c 0,0 22.48935,-75.28323 32.91097,-112.16058 15.23695,-53.91663 79.63951,-102.42222 134.9265,-85.58349 37.03912,11.28099 113.29068,33.24257 113.29068,33.24257 0,0 -24.03238,84.14948 -36.20058,125.23703 -13.37136,45.15017 -75.00468,89.02538 -125.83873,74.20838 z"
       id="path2997-7-4-0"
       style="color:#000000;fill:#24c22b;fill-opacity:1;stroke:none;stroke-width:1.5;marker:none;visibility:visible;display:inline;overflow:visible;enable-background:accumulate" />
    <path
       d="m 602.10974,603.00504 c -40.3369,0.0724 -124.10974,0 -124.10974,0 0,0 0.38305,-78.56965 0,-116.88939 -0.56004,-56.02547 47.58002,-120.70171 105.37141,-120.11061 38.71693,0.39601 118.06713,0 118.06713,0 0,0 0.63269,87.51166 0.52523,130.36304 -0.1181,47.08839 -46.90467,106.54188 -99.85403,106.63696 z"
       id="path2997-7-4"
       style="color:#000000;fill:#009933;fill-opacity:1;stroke:none;stroke-width:1.5;marker:none;visibility:visible;display:inline;overflow:visible;enable-background:accumulate" />
    <path
       d="m 626.9104,454.65729 18.91511,-0.88388 c -2.12132,-19.79899 -7.6014,-24.74874 -11.66726,-28.46105 -4.06587,-3.71231 -15.2028,-15.37957 -42.60319,-14.84924 -27.40039,0.53033 -50.20458,14.67246 -50.0278,39.77475 0.16559,23.51338 19.44543,32.88047 42.77996,38.89088 23.33452,6.0104 47.19938,8.66205 46.84582,26.87005 -0.30895,15.91084 -15.73312,24.74875 -34.64823,24.21841 -18.91511,-0.53033 -38.18377,-5.3033 -41.54252,-31.99658 -8.83884,0.88388 -18.73833,1.59099 -18.73833,1.59099 1.94454,35.53212 29.97604,48.2506 59.39697,48.43681 27.93072,0.17678 54.26534,-13.25822 54.09367,-42.95673 -0.17678,-30.58237 -27.75395,-37.47666 -51.79558,-42.95674 -28.04955,-6.39364 -37.29988,-9.54594 -37.29988,-24.21841 0,-14.67246 17.32412,-20.32932 32.17336,-20.15254 16.44002,0.19571 32.88046,6.89429 34.1179,26.69328 z"
       id="path3772-1"
       style="color:#000000;fill:#ffffff;fill-opacity:1;fill-rule:evenodd;stroke:none;stroke-width:0.40000001;marker:none;visibility:visible;display:inline;overflow:visible;enable-background:accumulate" />
  </g>
  <g
     transform="translate(1,-365.00504)"
     id="layer1"
     style="display:inline" />
</svg>
