<?xml version="1.0" encoding="UTF-8" standalone="no"?>
<!-- Created with Inkscape (http://www.inkscape.org/) -->

<svg
   xmlns:dc="http://purl.org/dc/elements/1.1/"
   xmlns:cc="http://creativecommons.org/ns#"
   xmlns:rdf="http://www.w3.org/1999/02/22-rdf-syntax-ns#"
   xmlns:svg="http://www.w3.org/2000/svg"
   xmlns="http://www.w3.org/2000/svg"
   xmlns:sodipodi="http://sodipodi.sourceforge.net/DTD/sodipodi-0.dtd"
   xmlns:inkscape="http://www.inkscape.org/namespaces/inkscape"
   width="399.80701"
   height="222.72945"
   id="svg3043"
   version="1.1"
   inkscape:version="0.47 r22583"
   sodipodi:docname="New document 3">
  <defs
     id="defs3045">
    <inkscape:perspective
       sodipodi:type="inkscape:persp3d"
       inkscape:vp_x="0 : 526.18109 : 1"
       inkscape:vp_y="0 : 1000 : 0"
       inkscape:vp_z="744.09448 : 526.18109 : 1"
       inkscape:persp3d-origin="372.04724 : 350.78739 : 1"
       id="perspective3051" />
    <inkscape:perspective
       id="perspective3016"
       inkscape:persp3d-origin="0.5 : 0.33333333 : 1"
       inkscape:vp_z="1 : 0.5 : 1"
       inkscape:vp_y="0 : 1000 : 0"
       inkscape:vp_x="0 : 0.5 : 1"
       sodipodi:type="inkscape:persp3d" />
    <clipPath
       clipPathUnits="userSpaceOnUse"
       id="clipPath138">
      <path
         d="m 375.545,157.688 54.556,0 0,30.288 -54.556,0 0,-30.288 z"
         id="path140" />
    </clipPath>
    <clipPath
       clipPathUnits="userSpaceOnUse"
       id="clipPath144">
      <path
         d="m 375.545,190.261 54.368,0 0,-34.993 -54.368,0 0,34.993 z"
         clip-rule="evenodd"
         id="path146" />
    </clipPath>
    <clipPath
       clipPathUnits="userSpaceOnUse"
       id="clipPath150">
      <path
         d="m 0,992.126 1417.323,0 L 1417.323,0 0,0 0,992.126 z"
         id="path152" />
    </clipPath>
    <clipPath
       clipPathUnits="userSpaceOnUse"
       id="clipPath156">
      <path
         d="m 0,992.07 1417.32,0 0,-992.04 L 0,0.03 0,992.07 z"
         id="path158" />
    </clipPath>
  </defs>
  <sodipodi:namedview
     id="base"
     pagecolor="#ffffff"
     bordercolor="#666666"
     borderopacity="1.0"
     inkscape:pageopacity="0.0"
     inkscape:pageshadow="2"
     inkscape:zoom="1.979899"
     inkscape:cx="138.79519"
     inkscape:cy="111.46645"
     inkscape:document-units="px"
     inkscape:current-layer="layer1"
     showgrid="false"
     inkscape:window-width="1280"
     inkscape:window-height="750"
     inkscape:window-x="-8"
     inkscape:window-y="-8"
     inkscape:window-maximized="1" />
  <metadata
     id="metadata3048">
    <rdf:RDF>
      <cc:Work
         rdf:about="">
        <dc:format>image/svg+xml</dc:format>
        <dc:type
           rdf:resource="http://purl.org/dc/dcmitype/StillImage" />
        <dc:title></dc:title>
      </cc:Work>
    </rdf:RDF>
  </metadata>
  <g
     inkscape:label="Layer 1"
     inkscape:groupmode="layer"
     id="layer1"
     transform="translate(-74.172991,-287.71787)">
    <g
       id="g3106"
       transform="matrix(5.8829752,0,0,5.8829752,-2314.4326,-1404.9194)">
      <g
         transform="matrix(1.25,0,0,-1.25,-63.41125,522.6879)"
         id="g134">
        <g
           clip-path="url(#clipPath138)"
           id="g136">
          <g
             clip-path="url(#clipPath144)"
             id="g142">
            <g
               clip-path="url(#clipPath150)"
               id="g148">
              <g
                 clip-path="url(#clipPath156)"
                 id="g154">
                <path
                   id="path160"
                   style="fill:#643585;fill-opacity:1;fill-rule:nonzero;stroke:none"
                   d="m 375.545,164.486 54.415,0 0,23.49 -54.415,0 0,-23.49 z" />
                <path
                   id="path162"
                   style="fill:#643585;fill-opacity:1;fill-rule:nonzero;stroke:none"
                   d="m 375.545,157.688 54.415,0 0,4.2766 -54.415,0 0,-4.2766 z" />
                <g
                   transform="translate(392.139,166.208)"
                   id="g164">
                  <path
                     id="path166"
                     style="fill:#ffffff;fill-opacity:1;fill-rule:nonzero;stroke:none"
                     d="m 0,0 3.515,0 0,1.04 c 0.729,-0.902 1.777,-1.353 3.148,-1.353 1.25,0 2.131,0.385 2.644,1.154 0.512,0.769 0.769,2.09 0.769,3.962 l 0,4.838 c 0,1.426 -0.271,2.497 -0.814,3.211 -0.542,0.714 -1.363,1.071 -2.467,1.071 -1.389,0 -2.429,-0.472 -3.118,-1.416 l -0.059,-0.071 0,7.118 L 0,19.554 0,0 z M 3.927,2.735 C 3.741,3.143 3.637,3.971 3.618,5.222 l 0,3.166 c 0,1.092 0.115,1.879 0.346,2.361 0.229,0.482 0.599,0.723 1.108,0.723 0.54,0 0.915,-0.198 1.125,-0.591 0.211,-0.393 0.316,-1.09 0.316,-2.09 l 0,-3.417 C 6.513,4.059 6.417,3.191 6.226,2.769 6.035,2.348 5.646,2.138 5.059,2.138 c -0.57,0 -0.946,0.199 -1.132,0.597" />
                </g>
                <g
                   transform="translate(410.306,167.129)"
                   id="g168">
                  <path
                     id="path170"
                     style="fill:#ffffff;fill-opacity:1;fill-rule:nonzero;stroke:none"
                     d="m 0,0 0.163,0.18 0,-1.101 3.493,0 0,9.744 c -0.001,1.425 -0.396,2.478 -1.185,3.158 -0.79,0.68 -2.008,1.02 -3.655,1.02 -1.712,0 -2.96,-0.306 -3.741,-0.917 -0.783,-0.612 -1.164,-1.579 -1.144,-2.904 l 0,-0.403 3.612,0 0,0.406 c -0.029,0.56 0.069,0.979 0.295,1.26 0.227,0.28 0.587,0.42 1.082,0.42 0.379,0 0.661,-0.131 0.845,-0.392 0.186,-0.262 0.279,-0.648 0.279,-1.162 l 0,-1.679 -1.092,0 C -3.015,7.63 -4.399,7.299 -5.2,6.636 -6.002,5.974 -6.403,4.832 -6.403,3.212 l 0,-0.834 c 0,-1.13 0.295,-2.016 0.886,-2.654 0.59,-0.639 1.406,-0.959 2.448,-0.959 1.367,0 2.39,0.412 3.069,1.235 z M 0.044,3.626 C 0.044,2.723 -0.087,2.044 -0.35,1.587 -0.612,1.131 -1.005,0.904 -1.53,0.904 c -0.386,0 -0.692,0.119 -0.92,0.359 -0.227,0.239 -0.341,0.571 -0.341,0.995 l 0,0.829 c 0,0.885 0.178,1.507 0.534,1.866 0.356,0.359 0.964,0.539 1.826,0.539 l 0.475,0 0,-1.866" />
                </g>
                <g
                   transform="translate(386.667,167.129)"
                   id="g172">
                  <path
                     id="path174"
                     style="fill:#ffffff;fill-opacity:1;fill-rule:nonzero;stroke:none"
                     d="m 0,0 0.163,0.18 0,-1.101 3.493,0 0,9.744 c -0.001,1.425 -0.396,2.478 -1.185,3.158 -0.79,0.68 -2.009,1.02 -3.655,1.02 -1.712,0 -2.961,-0.306 -3.741,-0.917 -0.783,-0.612 -1.164,-1.579 -1.144,-2.904 l 0,-0.403 3.612,0 0,0.406 c -0.03,0.56 0.068,0.979 0.295,1.26 0.227,0.28 0.587,0.42 1.082,0.42 0.379,0 0.661,-0.131 0.845,-0.392 0.186,-0.262 0.278,-0.648 0.278,-1.162 l 0,-1.679 -1.091,0 C -3.015,7.63 -4.4,7.299 -5.2,6.636 -6.002,5.974 -6.403,4.832 -6.403,3.212 l 0,-0.834 c 0,-1.13 0.295,-2.016 0.885,-2.654 0.591,-0.639 1.407,-0.959 2.449,-0.959 1.367,0 2.39,0.412 3.069,1.235 z M 0.043,3.626 C 0.043,2.723 -0.088,2.044 -0.35,1.587 -0.612,1.131 -1.006,0.904 -1.53,0.904 c -0.386,0 -0.693,0.119 -0.92,0.359 -0.228,0.239 -0.342,0.571 -0.342,0.995 l 0,0.829 c 0,0.885 0.179,1.507 0.534,1.866 0.357,0.359 0.965,0.539 1.826,0.539 l 0.475,0 0,-1.866" />
                </g>
                <g
                   transform="translate(416.083,179.817)"
                   id="g176">
                  <path
                     id="path178"
                     style="fill:#ffffff;fill-opacity:1;fill-rule:nonzero;stroke:none"
                     d="m 0,0 3.573,0 0,-1.256 c 0.777,1.046 1.886,1.569 3.324,1.569 1.022,0 1.785,-0.299 2.29,-0.896 0.506,-0.597 0.759,-1.497 0.759,-2.699 l 0,-10.327 -3.571,0 0,9.892 c 0,0.553 -0.098,0.956 -0.292,1.205 -0.195,0.249 -0.516,0.374 -0.963,0.374 -0.595,0 -1.01,-0.236 -1.249,-0.706 C 3.632,-3.315 3.533,-4.129 3.572,-5.283 l 0,-8.326 -3.572,0" />
                </g>
              </g>
            </g>
          </g>
        </g>
      </g>
    </g>
  </g>
</svg>
