<?xml version="1.0" encoding="UTF-8" standalone="no"?>
<!-- Created with Inkscape (http://www.inkscape.org/) -->

<svg
   xmlns:dc="http://purl.org/dc/elements/1.1/"
   xmlns:cc="http://creativecommons.org/ns#"
   xmlns:rdf="http://www.w3.org/1999/02/22-rdf-syntax-ns#"
   xmlns:svg="http://www.w3.org/2000/svg"
   xmlns="http://www.w3.org/2000/svg"
   xmlns:sodipodi="http://sodipodi.sourceforge.net/DTD/sodipodi-0.dtd"
   xmlns:inkscape="http://www.inkscape.org/namespaces/inkscape"
   id="svg2"
   version="1.1"
   inkscape:version="0.48.5 r10040"
   width="94.092247"
   height="51.5"
   xml:space="preserve"
   sodipodi:docname="BA_littlefreelibrary_instructions.pdf"><metadata
     id="metadata8"><rdf:RDF><cc:Work
         rdf:about=""><dc:format>image/svg+xml</dc:format><dc:type
           rdf:resource="http://purl.org/dc/dcmitype/StillImage" /><dc:title></dc:title></cc:Work></rdf:RDF></metadata><defs
     id="defs6"><clipPath
       clipPathUnits="userSpaceOnUse"
       id="clipPath32"><path
         d="M 0,0 612,0 612,792 0,792 0,0 z"
         id="path34"
         inkscape:connector-curvature="0" /></clipPath><clipPath
       clipPathUnits="userSpaceOnUse"
       id="clipPath86"><path
         d="M 0,0 612,0 612,792 0,792 0,0 z"
         id="path88"
         inkscape:connector-curvature="0" /></clipPath><clipPath
       clipPathUnits="userSpaceOnUse"
       id="clipPath122"><path
         d="M 0,0 612,0 612,792 0,792 0,0 z"
         id="path124"
         inkscape:connector-curvature="0" /></clipPath></defs><sodipodi:namedview
     pagecolor="#ffffff"
     bordercolor="#666666"
     borderopacity="1"
     objecttolerance="10"
     gridtolerance="10"
     guidetolerance="10"
     inkscape:pageopacity="0"
     inkscape:pageshadow="2"
     inkscape:window-width="1920"
     inkscape:window-height="1017"
     id="namedview4"
     showgrid="false"
     fit-margin-top="1"
     fit-margin-left="1"
     fit-margin-bottom="1"
     fit-margin-right="1"
     inkscape:zoom="3.8141414"
     inkscape:cx="-80.454947"
     inkscape:cy="33.999851"
     inkscape:window-x="-8"
     inkscape:window-y="-8"
     inkscape:window-maximized="1"
     inkscape:current-layer="g10" /><g
     id="g10"
     inkscape:groupmode="layer"
     inkscape:label="BA_littlefreelibrary_instructions"
     transform="matrix(1.25,0,0,-1.25,-626.90737,85.6)"><g
       id="g28"><g
         id="g30"
         clip-path="url(#clipPath32)"><g
           id="g42"
           transform="translate(521.4297,37.5701)"
           style="fill:#5e6e65;fill-opacity:1"><path
             d="M 0,0 0.384,1.298 C 0.001,1.068 -0.064,1.037 -0.688,0.733 -1.269,0.44 -1.705,0.221 -1.885,-0.387 c -0.067,-0.23 -0.23,-0.774 0.513,-0.774 0.205,0 0.427,0.052 0.636,0.156 C -0.271,-0.774 -0.123,-0.419 0,0 M 0.939,-0.489 C 0.889,-0.659 0.849,-0.797 0.821,-0.913 L 0.617,-1.6 c 0,0 -0.56,0.059 -0.919,0.061 -0.605,0.003 -0.611,-0.154 -1.544,-0.154 -0.316,0 -0.575,0.052 -0.777,0.157 -0.558,0.293 -0.477,0.795 -0.363,1.182 0.252,0.848 0.771,1.12 1.595,1.497 1.201,0.533 1.327,0.586 2.024,0.995 0.127,0.429 0.273,0.92 -0.564,0.92 -0.824,0 -0.953,-0.44 -1.046,-0.753 C -1.025,2.148 -1.044,2.033 -1.064,1.918 l -1.003,0 c 0.052,0.22 0.22,0.784 0.407,1.046 0.569,0.764 1.735,0.764 2.037,0.764 0.493,0 0.969,-0.062 1.272,-0.387 C 1.974,3.005 1.891,2.724 1.68,2.012 L 0.939,-0.489 z"
             style="fill:#5e6e65;fill-opacity:1;fill-rule:nonzero;stroke:none"
             id="path44"
             inkscape:connector-curvature="0" /></g><g
           id="g46"
           transform="translate(525.163,38.4865)"
           style="fill:#5e6e65;fill-opacity:1"><path
             d="M 0,0 C 0.288,0.973 0.457,1.266 0.751,1.517 1.262,1.946 1.866,1.946 2.359,1.946 L 2.617,2.815 C 1.453,2.868 0.817,2.156 0.449,1.748 l 0.292,0.983 -1.057,0 -1.55,-5.232 1.125,0 L 0,0 z"
             style="fill:#5e6e65;fill-opacity:1;fill-rule:nonzero;stroke:none"
             id="path48"
             inkscape:connector-curvature="0" /></g><g
           id="g50"
           transform="translate(530.0474,37.9313)"
           style="fill:#5e6e65;fill-opacity:1"><path
             d="m 0,0 c -0.258,-0.868 -0.478,-1.382 -1.286,-1.382 -0.811,0 -0.681,0.535 -0.613,0.806 0.119,0.451 0.339,1.192 0.402,1.404 0.434,1.464 0.581,1.915 1.446,1.915 0.863,0 0.73,-0.451 0.463,-1.351 l 1.043,0 c 0.307,1.036 0.589,1.989 -1.291,1.989 -1.949,0 -2.304,-0.973 -2.857,-2.836 -0.253,-0.858 -0.391,-1.413 -0.354,-1.759 0.055,-0.596 0.66,-0.827 1.496,-0.827 1.989,0 2.311,1.089 2.594,2.041 L 0,0 z"
             style="fill:#5e6e65;fill-opacity:1;fill-rule:nonzero;stroke:none"
             id="path52"
             inkscape:connector-curvature="0" /></g><g
           id="g54"
           transform="translate(536.4603,39.5847)"
           style="fill:#5e6e65;fill-opacity:1"><path
             d="m 0,0 c 0.146,0.493 0.298,1.005 0.031,1.35 -0.18,0.231 -0.535,0.378 -1.001,0.378 -0.81,0 -1.258,-0.356 -1.54,-0.565 l 0.558,1.878 -1.085,0 -1.966,-6.64 1.083,0 0.93,3.139 c 0.248,0.837 0.452,1.528 1.371,1.528 0.851,0 0.699,-0.513 0.398,-1.528 l -0.93,-3.139 1.085,0 L 0,0 z"
             style="fill:#5e6e65;fill-opacity:1;fill-rule:nonzero;stroke:none"
             id="path56"
             inkscape:connector-curvature="0" /></g><g
           id="g58"
           transform="translate(543.9601,39.1145)"
           style="fill:#5e6e65;fill-opacity:1"><path
             d="m 0,0 c 0.219,0.744 0.269,0.911 0.41,1.11 0.118,0.167 0.363,0.438 0.926,0.438 0.822,0 0.653,-0.617 0.584,-0.899 L 1.727,0 0,0 z M 1.295,-1.507 C 1.137,-2.041 0.916,-2.554 0.121,-2.554 c -0.783,0 -0.676,0.544 -0.644,0.743 0.029,0.188 0.199,0.723 0.32,1.13 l 2.758,0 c 0.391,1.32 0.434,1.466 0.457,1.727 0.117,1.141 -1.145,1.141 -1.583,1.141 -1.77,0 -2.197,-1.025 -2.529,-2.146 -0.623,-2.103 -0.599,-2.208 -0.55,-2.459 0.172,-0.764 1.105,-0.806 1.517,-0.806 0.344,0 1.413,0 2.057,0.828 0.203,0.271 0.281,0.534 0.386,0.889 l -1.015,0 z"
             style="fill:#5e6e65;fill-opacity:1;fill-rule:nonzero;stroke:none"
             id="path60"
             inkscape:connector-curvature="0" /></g><g
           id="g62"
           transform="translate(550.2028,37.9313)"
           style="fill:#5e6e65;fill-opacity:1"><path
             d="m 0,0 c -0.256,-0.868 -0.477,-1.382 -1.286,-1.382 -0.809,0 -0.679,0.535 -0.613,0.806 0.121,0.451 0.341,1.192 0.403,1.404 0.433,1.464 0.579,1.915 1.445,1.915 0.865,0 0.732,-0.451 0.464,-1.351 l 1.043,0 c 0.307,1.036 0.588,1.989 -1.291,1.989 -1.948,0 -2.304,-0.973 -2.857,-2.836 -0.254,-0.858 -0.39,-1.413 -0.355,-1.759 0.057,-0.596 0.66,-0.827 1.498,-0.827 1.989,0 2.31,1.089 2.593,2.041 L 0,0 z"
             style="fill:#5e6e65;fill-opacity:1;fill-rule:nonzero;stroke:none"
             id="path64"
             inkscape:connector-curvature="0" /></g><g
           id="g66"
           transform="translate(557.108,38.109)"
           style="fill:#5e6e65;fill-opacity:1"><path
             d="m 0,0 c 0.408,-0.335 0.565,-0.503 0.444,-0.91 -0.125,-0.419 -0.546,-0.639 -0.971,-0.639 -0.385,0 -0.613,0.157 -0.66,0.366 -0.033,0.168 0.072,0.524 0.174,0.87 l -1.055,0 c -0.164,-0.597 -0.252,-0.942 -0.17,-1.225 0.162,-0.649 1.059,-0.681 1.43,-0.681 0.494,0 0.907,0.053 1.32,0.241 0.585,0.262 0.955,0.723 1.09,1.183 0.217,0.733 -0.215,1.078 -0.574,1.35 L 0.41,1.057 c -0.447,0.347 -0.691,0.545 -0.586,0.901 0.116,0.387 0.487,0.575 0.897,0.575 0.125,0 0.438,-0.01 0.528,-0.261 C 1.312,2.115 1.282,1.968 1.164,1.571 l 0.975,0 C 2.268,2.01 2.424,2.533 2.123,2.857 1.924,3.066 1.484,3.203 0.921,3.203 0.112,3.203 -0.912,2.941 -1.232,1.863 -1.424,1.215 -1.076,0.911 -0.67,0.566 L 0,0 z"
             style="fill:#5e6e65;fill-opacity:1;fill-rule:nonzero;stroke:none"
             id="path68"
             inkscape:connector-curvature="0" /></g><g
           id="g70"
           transform="translate(542.7857,41.2043)"
           style="fill:#5e6e65;fill-opacity:1"><path
             d="m 0,0 -1.001,0 0.415,1.403 -1.099,0 -1.488,-4.933 c -0.283,-0.96 -0.315,-1.065 -0.249,-1.306 0.065,-0.241 0.294,-0.491 1.253,-0.491 0.288,0 0.463,0.032 0.623,0.063 l 0.203,0.679 c -0.117,-0.021 -0.22,-0.041 -0.397,-0.041 -0.591,0 -0.533,0.333 -0.435,0.668 l 0.984,3.32 1.002,0 L 0,0 z"
             style="fill:#5e6e65;fill-opacity:1;fill-rule:nonzero;stroke:none"
             id="path72"
             inkscape:connector-curvature="0" /></g><g
           id="g74"
           transform="translate(555.3423,41.2043)"
           style="fill:#5e6e65;fill-opacity:1"><path
             d="m 0,0 -1.003,0 0.417,1.403 -1.099,0 -1.488,-4.933 c -0.283,-0.96 -0.315,-1.065 -0.249,-1.306 0.066,-0.241 0.294,-0.491 1.253,-0.491 0.29,0 0.463,0.032 0.623,0.063 l 0.201,0.679 c -0.116,-0.021 -0.218,-0.041 -0.395,-0.041 -0.59,0 -0.533,0.333 -0.435,0.668 l 0.984,3.32 1.002,0 L 0,0 z"
             style="fill:#5e6e65;fill-opacity:1;fill-rule:nonzero;stroke:none"
             id="path76"
             inkscape:connector-curvature="0" /></g></g></g><g
       id="g78"
       transform="translate(539.7292,42.6337)"
       style="fill:#5e6e65;fill-opacity:1"><path
         d="m 0,0 -1.085,0 -0.233,-0.788 1.084,0 L 0,0 z m -0.424,-1.429 -1.083,0 -1.549,-5.234 1.082,0 1.55,5.234 z"
         style="fill:#5e6e65;fill-opacity:1;fill-rule:nonzero;stroke:none"
         id="path80"
         inkscape:connector-curvature="0" /></g><g
       id="g82"
       style="fill:#5e6e65;fill-opacity:1"><g
         id="g84"
         clip-path="url(#clipPath86)"
         style="fill:#5e6e65;fill-opacity:1"><g
           id="g90"
           transform="translate(517.9734,47.4992)"
           style="fill:#5e6e65;fill-opacity:1"><path
             d="M 0,0 0.734,2.479 C 0.002,2.039 -0.122,1.979 -1.315,1.399 -2.424,0.839 -3.257,0.42 -3.6,-0.74 c -0.13,-0.439 -0.437,-1.48 0.977,-1.48 0.393,0 0.816,0.1 1.215,0.301 C -0.517,-1.48 -0.237,-0.801 0,0 M 1.793,-0.937 C 1.697,-1.259 1.622,-1.524 1.567,-1.746 L 1.179,-3.055 c 0,0 -1.068,0.112 -1.756,0.114 -1.156,0.005 -1.167,-0.295 -2.949,-0.295 -0.603,0 -1.097,0.101 -1.484,0.3 -1.067,0.559 -0.912,1.52 -0.694,2.26 0.479,1.619 1.472,2.138 3.048,2.859 2.294,1.02 2.533,1.12 3.865,1.899 C 1.451,4.901 1.73,5.84 0.131,5.84 -1.441,5.84 -1.69,5.001 -1.867,4.401 -1.957,4.102 -1.995,3.881 -2.035,3.662 l -1.912,0 c 0.097,0.42 0.417,1.499 0.776,2 C -2.084,7.12 0.143,7.12 0.72,7.12 1.662,7.12 2.57,7 3.147,6.381 3.77,5.74 3.611,5.201 3.208,3.841 L 1.793,-0.937 z"
             style="fill:#5e6e65;fill-opacity:1;fill-rule:nonzero;stroke:none"
             id="path92"
             inkscape:connector-curvature="0" /></g><g
           id="g94"
           transform="translate(525.8507,48.5014)"
           style="fill:#5e6e65;fill-opacity:1"><path
             d="m 0,0 c 0.779,-0.64 1.079,-0.959 0.847,-1.739 -0.237,-0.799 -1.043,-1.22 -1.854,-1.22 -0.734,0 -1.169,0.301 -1.261,0.7 -0.063,0.32 0.138,1 0.333,1.66 l -2.017,0 c -0.31,-1.14 -0.48,-1.8 -0.325,-2.34 0.314,-1.239 2.026,-1.299 2.733,-1.299 0.944,0 1.732,0.099 2.521,0.46 1.118,0.499 1.823,1.379 2.084,2.258 0.414,1.401 -0.413,2.06 -1.097,2.58 L 0.781,2.019 C -0.071,2.68 -0.536,3.06 -0.334,3.74 c 0.218,0.739 0.929,1.098 1.715,1.098 0.235,0 0.832,-0.02 1.004,-0.499 0.121,-0.3 0.064,-0.58 -0.161,-1.34 l 1.861,0 c 0.249,0.84 0.545,1.839 -0.031,2.459 -0.38,0.4 -1.221,0.66 -2.295,0.66 -1.546,0 -3.502,-0.501 -4.112,-2.558 -0.367,-1.24 0.3,-1.82 1.074,-2.48 L 0,0 z"
             style="fill:#5e6e65;fill-opacity:1;fill-rule:nonzero;stroke:none"
             id="path96"
             inkscape:connector-curvature="0" /></g><g
           id="g98"
           transform="translate(534.0532,48.5014)"
           style="fill:#5e6e65;fill-opacity:1"><path
             d="m 0,0 c 0.78,-0.64 1.078,-0.959 0.848,-1.739 -0.237,-0.799 -1.043,-1.22 -1.854,-1.22 -0.736,0 -1.17,0.301 -1.261,0.7 -0.064,0.32 0.139,1 0.333,1.66 l -2.017,0 c -0.311,-1.14 -0.48,-1.8 -0.326,-2.34 0.314,-1.239 2.026,-1.299 2.734,-1.299 0.943,0 1.732,0.099 2.52,0.46 1.118,0.499 1.824,1.379 2.085,2.258 0.414,1.401 -0.413,2.06 -1.097,2.58 L 0.782,2.019 C -0.071,2.68 -0.535,3.06 -0.334,3.74 c 0.218,0.739 0.929,1.098 1.713,1.098 0.237,0 0.835,-0.02 1.007,-0.499 0.121,-0.3 0.064,-0.58 -0.161,-1.34 l 1.861,0 c 0.249,0.84 0.544,1.839 -0.032,2.459 -0.379,0.4 -1.22,0.66 -2.294,0.66 -1.547,0 -3.502,-0.501 -4.113,-2.558 -0.366,-1.24 0.3,-1.82 1.074,-2.48 L 0,0 z"
             style="fill:#5e6e65;fill-opacity:1;fill-rule:nonzero;stroke:none"
             id="path100"
             inkscape:connector-curvature="0" /></g><g
           id="g102"
           transform="translate(541.6727,50.421)"
           style="fill:#5e6e65;fill-opacity:1"><path
             d="M 0,0 C 0.421,1.42 0.516,1.739 0.785,2.118 1.011,2.439 1.478,2.959 2.552,2.959 4.125,2.959 3.803,1.78 3.668,1.24 L 3.301,0 0,0 z m 2.475,-2.879 c -0.303,-1.019 -0.723,-2 -2.243,-2 -1.494,0 -1.29,1.041 -1.23,1.42 0.054,0.36 0.382,1.38 0.612,2.16 l 5.269,0 C 5.627,1.22 5.711,1.499 5.754,2 5.981,4.178 3.569,4.178 2.729,4.178 -0.65,4.178 -1.465,2.22 -2.1,0.08 c -1.19,-4.019 -1.144,-4.219 -1.05,-4.697 0.327,-1.461 2.113,-1.542 2.899,-1.542 0.655,0 2.699,0 3.926,1.581 0.39,0.52 0.538,1.02 0.739,1.699 l -1.939,0 z"
             style="fill:#5e6e65;fill-opacity:1;fill-rule:nonzero;stroke:none"
             id="path104"
             inkscape:connector-curvature="0" /></g><g
           id="g106"
           transform="translate(553.9898,54.4401)"
           style="fill:#5e6e65;fill-opacity:1"><path
             d="m 0,0 -1.913,0 0.793,2.678 -2.095,0 -2.844,-9.422 c -0.542,-1.834 -0.602,-2.034 -0.476,-2.493 0.126,-0.46 0.56,-0.94 2.394,-0.94 0.552,0 0.884,0.06 1.189,0.119 l 0.385,1.301 c -0.22,-0.04 -0.416,-0.08 -0.757,-0.08 -1.127,0 -1.017,0.638 -0.828,1.275 l 1.878,6.342 1.914,0 L 0,0 z"
             style="fill:#5e6e65;fill-opacity:1;fill-rule:nonzero;stroke:none"
             id="path108"
             inkscape:connector-curvature="0" /></g><g
           id="g110"
           transform="translate(559.9837,54.4401)"
           style="fill:#5e6e65;fill-opacity:1"><path
             d="m 0,0 -1.913,0 0.793,2.678 -2.097,0 -2.842,-9.422 c -0.543,-1.834 -0.602,-2.034 -0.476,-2.493 0.126,-0.46 0.56,-0.94 2.394,-0.94 0.551,0 0.883,0.06 1.189,0.119 l 0.385,1.301 c -0.221,-0.04 -0.418,-0.08 -0.757,-0.08 -1.127,0 -1.017,0.638 -0.828,1.275 l 1.878,6.342 1.912,0 L 0,0 z"
             style="fill:#5e6e65;fill-opacity:1;fill-rule:nonzero;stroke:none"
             id="path112"
             inkscape:connector-curvature="0" /></g></g></g><g
       id="g114"
       transform="translate(574.7507,67.68)"
       style="fill:#f15c22;fill-opacity:1"><path
         d="m 0,0 -11.568,-39.6 1.248,0 L 1.249,0 0,0 z"
         style="fill:#f15c22;fill-opacity:1;fill-rule:nonzero;stroke:none"
         id="path116"
         inkscape:connector-curvature="0" /></g><g
       id="g118"
       style="fill:#5e6e65;fill-opacity:1"><g
         id="g120"
         clip-path="url(#clipPath122)"
         style="fill:#5e6e65;fill-opacity:1"><g
           id="g126"
           transform="translate(506.6009,51.4109)"
           style="fill:#5e6e65;fill-opacity:1"><path
             d="m 0,0 -0.7,-2.368 0.361,1.262 C -0.217,-0.695 -0.108,-0.327 0,0 m -0.7,-2.368 c -0.182,-0.622 -0.387,-1.306 -0.477,-1.657 -0.235,-0.879 -0.493,-1.839 0.87,-1.839 1.573,0 1.886,1.06 2.709,3.839 C 2.652,-1.187 3,-0.006 3.128,0.513 3.273,1.093 3.365,1.934 2.133,1.934 0.875,1.934 0.438,1.306 0,0 -0.108,-0.327 -0.217,-0.695 -0.339,-1.106 L -0.7,-2.368 z m -2.223,0 2.929,9.947 2.223,0 -1.314,-4.493 c 0.444,0.104 0.967,0.166 1.583,0.166 1.599,0 2.542,-0.439 2.838,-1.299 0.239,-0.7 0.15,-1 -0.738,-3.999 -0.225,-0.759 -0.823,-2.599 -1.26,-3.279 -0.399,-0.639 -1.261,-1.778 -3.985,-1.778 -0.379,0 -0.745,0.016 -1.084,0.076 -0.213,0.035 -0.453,0.059 -0.788,0.057 -0.688,-0.003 -1.756,-0.114 -1.756,-0.114 l 1.212,4.272 0.14,0.444 z"
             style="fill:#5e6e65;fill-opacity:1;fill-rule:nonzero;stroke:none"
             id="path128"
             inkscape:connector-curvature="0" /></g></g></g><g
       id="g130"
       transform="translate(564.2162,57.1694)"
       style="fill:#f15c22;fill-opacity:1"><path
         d="m 0,0 -2.069,0 -0.446,-1.504 2.071,0 L 0,0 z"
         style="fill:#f15c22;fill-opacity:1;fill-rule:nonzero;stroke:none"
         id="path132"
         inkscape:connector-curvature="0" /></g><g
       id="g134"
       transform="translate(563.4087,54.4401)"
       style="fill:#5e6e65;fill-opacity:1"><path
         d="m 0,0 -2.07,0 -2.96,-9.998 2.069,0 L 0,0 z"
         style="fill:#5e6e65;fill-opacity:1;fill-rule:nonzero;stroke:none"
         id="path136"
         inkscape:connector-curvature="0" /></g></g></svg>