<?xml version="1.0" encoding="utf-8"?>
<!-- Generator: Adobe Illustrator 15.1.0, SVG Export Plug-In . SVG Version: 6.00 Build 0)  -->
<!DOCTYPE svg PUBLIC "-//W3C//DTD SVG 1.1//EN" "http://www.w3.org/Graphics/SVG/1.1/DTD/svg11.dtd">
<svg version="1.1" id="Layer_1" xmlns="http://www.w3.org/2000/svg" xmlns:xlink="http://www.w3.org/1999/xlink" x="0px" y="0px"
	 width="300px" height="105px" viewBox="0 0 300 105" enable-background="new 0 0 300 105" xml:space="preserve">
<rect y="10.667" fill="#DC1F31" width="300" height="94.334"/>
<path fill-rule="evenodd" clip-rule="evenodd" fill="#FFFFFF" d="M286.078,42.316c0,0,2.462-16.076-15.568-17.17l-11.176,9.43
	l1.556-9.667h-12.017l-8.466,52.129h12.022l3.194-19.605l13.547,19.177h13.805l-12.7-19.167
	C270.275,57.442,286.972,56.11,286.078,42.316z M268.47,48.975h-11.449l2.035-12.699h9.414c0,0,6.633-0.427,6.465,5.564
	C274.738,49.212,268.47,48.975,268.47,48.975z"/>
<path fill-rule="evenodd" clip-rule="evenodd" fill="#FFFFFF" d="M217.854,24.341c-13.908-0.884-26.433,9.526-30.109,22.625
	c-0.593-12.183-8.848-21.139-22.865-22.506l-10.205,9.836l1.546-9.388h-12.508l-6.666,41.382h-21.851l6.686-41.382h-13.794
	l-7.7,47.5L89.585,24.717H76.69L54.185,66.336H41.26c0,0-13.365,0.475-12.25-13.794c0,0,1.333-14.934,15.367-14.934h15.147
	l1.782-13.128H46.159c0,0-30.735,0.238-30.962,27.825c0,0-0.889,24.971,21.831,24.971h25.163l7.37-12.462h14.697l3.114,11.921
	h77.057c11.807-1.058,19.631-10.018,22.339-20.316c0.943,12.701,11.299,22.079,24.82,22.751
	c16.62,0.865,28.607-12.028,30.355-27.155C243.642,36.889,234.63,25.387,217.854,24.341z M73.793,55.207l6.464-13.794l2.431,13.794
	H73.793z M174.484,50.735c0,0,0,15.555-14.698,15.555h-10.301l4.915-30.277l0.007-0.045
	C159.672,35.722,176.354,36.108,174.484,50.735z M229.438,51.901c-0.938,9.137-7.501,16.91-16.562,16.4
	c-8.328-0.438-14.453-7.557-13.513-16.694c0.934-9.137,8.477-16.961,16.936-16.399C225.457,35.847,230.376,42.764,229.438,51.901z"
	/>
<polygon points="190.001,0 163.334,0 158.001,28.333 "/>
<rect y="93" width="300" height="12"/>
</svg>
