<?xml version="1.0" encoding="utf-8"?>
<!-- Generator: Adobe Illustrator 15.0.2, SVG Export Plug-In . SVG Version: 6.00 Build 0)  -->
<!DOCTYPE svg PUBLIC "-//W3C//DTD SVG 1.1//EN" "http://www.w3.org/Graphics/SVG/1.1/DTD/svg11.dtd">
<svg version="1.1" id="Ebene_1" xmlns="http://www.w3.org/2000/svg" xmlns:xlink="http://www.w3.org/1999/xlink" x="0px" y="0px"
	 width="860px" height="199px" viewBox="170.775 318.445 860 199" enable-background="new 170.775 318.445 860 199"
	 xml:space="preserve">
<g>
	<g>
		<path fill="#B1B3B4" d="M592.455,476.083c0-9.6-4.272-13.535-9.696-13.535c-2.64,0-4.752,1.248-6.576,2.928v-12.191l-4.896,2.545
			v32.447h4.896v-2.354c1.393,1.537,3.792,2.881,6.336,2.881C587.751,488.804,592.455,484.724,592.455,476.083L592.455,476.083z
			 M587.511,476.228c0,5.328-1.92,8.018-5.472,8.018c-2.496,0-4.8-1.824-5.904-3.314v-10.605c1.296-1.633,3.36-3.217,5.712-3.217
			C585.495,467.107,587.511,469.892,587.511,476.228L587.511,476.228z"/>
		<path fill="#B1B3B4" d="M625.796,475.171c0-6.814-3.456-12.623-10.606-12.623c-6.527,0-11.04,4.607-11.04,13.152
			c0,8.352,4.991,13.104,10.896,13.104c3.841,0,6.48-1.199,8.688-3.313l-2.93-3.168c-1.679,1.248-3.358,2.016-5.472,2.016
			c-3.071,0-5.808-2.063-6.336-6.912h16.656C625.7,476.9,625.796,476.083,625.796,475.171L625.796,475.171z M620.804,473.347
			h-11.711c0.433-4.029,2.447-6.336,5.76-6.336C618.933,467.011,620.564,469.892,620.804,473.347L620.804,473.347z"/>
		<path fill="#B1B3B4" d="M650.885,483.283c-0.912,0.529-2.353,1.01-3.647,1.01c-1.823,0-2.592-0.674-2.592-3.025v-13.68h6.239
			v-4.512h-6.239v-9.793l-4.849,2.592v7.201h-3.601v4.512h3.601v14.543c0,4.514,2.159,6.674,5.663,6.674
			c1.969,0,3.648-0.479,4.849-1.15L650.885,483.283L650.885,483.283z"/>
		<path fill="#B1B3B4" d="M676.211,483.283c-0.911,0.529-2.353,1.01-3.646,1.01c-1.824,0-2.594-0.674-2.594-3.025v-13.68h6.24
			v-4.512h-6.24v-9.793l-4.848,2.592v7.201h-3.6v4.512h3.6v14.543c0,4.514,2.16,6.674,5.664,6.674c1.968,0,3.646-0.479,4.848-1.15
			L676.211,483.283L676.211,483.283z"/>
		<path fill="#B1B3B4" d="M709.122,475.171c0-6.814-3.457-12.623-10.607-12.623c-6.527,0-11.041,4.607-11.041,13.152
			c0,8.352,4.992,13.104,10.896,13.104c3.84,0,6.479-1.199,8.688-3.313l-2.928-3.168c-1.68,1.248-3.359,2.016-5.473,2.016
			c-3.071,0-5.809-2.063-6.336-6.912h16.655C709.026,476.9,709.122,476.083,709.122,475.171L709.122,475.171z M704.13,473.347
			h-11.712c0.432-4.029,2.448-6.336,5.76-6.336C702.258,467.011,703.89,469.892,704.13,473.347L704.13,473.347z"/>
		<path fill="#B1B3B4" d="M736.946,463.603c-1.008-0.672-2.256-1.055-4.272-1.055c-2.496,0-4.607,1.248-5.76,2.928v-2.398h-4.944
			v25.199h4.944v-14.4c0-4.271,1.823-6.479,4.943-6.479c1.632,0,2.735,0.336,3.792,0.91L736.946,463.603L736.946,463.603z"/>
		<path fill="#B1B3B4" d="M788.663,488.275v-14.447c0-7.439-3.12-11.279-8.977-11.279c-2.593,0-5.089,1.105-6.337,2.928v-12.191
			l-4.942,2.592v32.4h4.942v-14.736c0-4.078,1.872-6.432,5.186-6.432c3.264,0,5.184,1.822,5.184,6.91v14.258h4.944V488.275z"/>
		<path fill="#B1B3B4" d="M821.765,488.275v-17.279c0-5.713-3.84-8.447-9.456-8.447c-3.552,0-6.239,0.77-8.64,2.256l1.92,3.744
			c1.968-1.104,3.983-1.584,6.576-1.584c3.071,0,4.752,1.535,4.752,4.271v1.871c-1.392-0.623-3.264-0.959-5.616-0.959
			c-5.712,0-10.032,2.543-10.032,8.16c0,6.191,4.656,8.496,8.736,8.496c2.735,0,5.186-1.297,6.912-3.025v2.496H821.765
			L821.765,488.275z M816.917,481.123c-1.152,1.586-3.456,3.217-6.097,3.217c-3.265,0-4.849-1.68-4.849-4.176
			c0-2.305,2.017-3.744,5.186-3.744c2.688,0,4.415,0.432,5.76,1.105V481.123L816.917,481.123z"/>
		<path fill="#B1B3B4" d="M855.833,488.275v-14.447c0-7.439-3.12-11.279-8.976-11.279c-2.593,0-5.089,1.105-6.337,2.928v-2.398
			h-4.943v25.199h4.943v-14.736c0-4.078,1.872-6.432,5.185-6.432c3.264,0,5.185,1.822,5.185,6.91v14.258h4.943V488.275z"/>
		<path fill="#B1B3B4" d="M889.703,488.275v-34.992l-4.896,2.545v9.6c-1.391-1.535-3.791-2.879-6.336-2.879
			c-5.23,0-9.936,4.078-9.936,12.719c0,9.602,4.271,13.537,9.696,13.537c2.64,0,4.752-1.248,6.574-2.93v2.4H889.703L889.703,488.275
			z M884.854,481.027c-1.297,1.633-3.359,3.217-5.712,3.217c-3.647,0-5.663-2.783-5.663-9.121c0-5.326,1.92-8.016,5.472-8.016
			c2.496,0,4.8,1.824,5.903,3.313V481.027L884.854,481.027z"/>
		<polygon fill="#B1B3B4" points="908.886,488.275 908.886,453.283 903.941,455.875 903.941,488.275 		"/>
		<path fill="#B1B3B4" d="M929.027,456.644c0-1.775-1.44-3.217-3.169-3.217c-1.776,0-3.217,1.439-3.217,3.217
			c0,1.729,1.439,3.168,3.217,3.168C927.587,459.812,929.027,458.371,929.027,456.644L929.027,456.644z M928.307,488.275v-25.199
			h-4.943v25.199H928.307L928.307,488.275z"/>
		<path fill="#B1B3B4" d="M962.801,488.275v-14.447c0-7.439-3.12-11.279-8.976-11.279c-2.593,0-5.089,1.105-6.337,2.928v-2.398
			h-4.943v25.199h4.943v-14.736c0-4.078,1.872-6.432,5.185-6.432c3.264,0,5.185,1.822,5.185,6.91v14.258h4.943V488.275z"/>
		<path fill="#B1B3B4" d="M996.671,485.875v-22.799h-4.943v2.352c-1.345-1.535-3.744-2.879-6.288-2.879
			c-5.186,0-9.938,4.078-9.938,12.719c0,9.602,4.32,13.537,9.697,13.537c2.639,0,4.703-1.248,6.526-2.93v0.434
			c0,5.23-1.535,7.152-8.641,7.488l1.681,3.742C993.887,497.251,996.671,493.556,996.671,485.875L996.671,485.875z M991.822,481.027
			c-1.296,1.633-3.359,3.217-5.712,3.217c-3.647,0-5.663-2.783-5.663-9.121c0-5.326,1.919-8.016,5.472-8.016
			c2.496,0,4.8,1.824,5.903,3.313V481.027L991.822,481.027z"/>
		<path fill="#E2001A" d="M430.861,435.15l-35.25-56.625l31.65-30.875h-35.399l-8.4,8.875c-6.75,7.124-15.9,17.25-20.249,22.999
			c0.3-6.375,0.449-14.25,0.449-21.624v-10.25h-29.7v87.5h29.7v-26.375l10.801-10.875l21.899,37.25H430.861L430.861,435.15z"/>
		<polygon fill="#E2001A" points="474.463,435.15 474.463,347.65 444.763,347.65 444.763,435.15 		"/>
		<polygon fill="#E2001A" points="577.899,435.15 577.899,414.776 525.249,414.776 525.249,399.774 556.299,399.774 556.299,379.65 
			525.249,379.65 525.249,368.025 576.848,368.025 576.848,347.65 496.449,347.65 496.449,435.15 		"/>
		<path fill="#E2001A" d="M676.292,408.276c0-16.375-11.7-23.125-38.102-28.376c-13.5-2.625-17.248-4.125-17.248-7.375
			c0-3.125,2.099-5.375,10.798-5.375c10.648,0,19.952,3,29.251,8.251l14.1-19.001c-11.099-6.5-23.999-10.124-41.849-10.124
			c-25.353,0-41.4,11.125-41.4,27.624c0,17.5,12.149,23.25,37.5,28.125c14.099,2.751,17.852,4.75,17.852,8
			c0,4.125-3.302,5.625-13.65,5.625c-9.751,0-23.103-4.374-30.751-8.749l-14.098,19c10.948,6,27.298,10.625,44.25,10.625
			C658.142,436.525,676.292,428.275,676.292,408.276L676.292,408.276z"/>
		<polygon fill="#E2001A" points="769.24,435.15 769.24,414.776 716.592,414.776 716.592,399.774 747.642,399.774 747.642,379.65 
			716.592,379.65 716.592,368.025 768.19,368.025 768.19,347.65 687.791,347.65 687.791,435.15 		"/>
		<polygon fill="#E2001A" points="863.732,435.15 863.732,414.024 817.232,414.024 817.232,347.65 787.833,347.65 787.833,435.15 		
			"/>
		<path fill="#B1B3B4" d="M306.761,377.295c0,0-85.092,33.614,13.882,69.861c55.978,19.281,118.897,17.482,173.975,8.291
			c0,0-52.637,48.586-210.48,23.072c-60.352-9.756-84.642-36.955-84.642-36.955s-22.278-19.895,15.682-43.896
			C243.842,379.545,306.761,377.295,306.761,377.295L306.761,377.295z"/>
	</g>
	<g>
		<path fill="#E2001A" d="M870.048,366.165c-9.841,0-17.328-7.488-17.328-17.328s7.487-17.328,17.328-17.328
			c9.84,0,17.328,7.488,17.328,17.328S879.888,366.165,870.048,366.165z M870.048,334.293c-8.257,0-14.544,6.288-14.544,14.544
			s6.287,14.544,14.544,14.544c8.256,0,14.544-6.288,14.544-14.544S878.304,334.293,870.048,334.293z M873.936,350.325l3.889,7.632
			h-3.792l-3.695-7.296h-3.648v7.296h-3.216v-18.912h8.305c3.359,0,6.191,1.776,6.191,5.712
			C877.968,347.733,876.384,349.605,873.936,350.325z M871.68,342.165h-4.991v5.376h4.991c1.729,0,3.023-0.816,3.023-2.688
			C874.703,343.077,873.407,342.165,871.68,342.165z"/>
	</g>
</g>
</svg>
