<?xml version="1.0" encoding="utf-8"?>
<!-- Generator: Adobe Illustrator 21.0.2, SVG Export Plug-In . SVG Version: 6.00 Build 0)  -->
<svg version="1.1" id="Layer_1" xmlns="http://www.w3.org/2000/svg" xmlns:xlink="http://www.w3.org/1999/xlink" x="0px" y="0px"
	 viewBox="0 0 95 75" style="enable-background:new 0 0 95 75;" xml:space="preserve">
<style type="text/css">
	.st0{fill:#EC1C24;}
</style>
<g>
	<path class="st0" d="M91.5,1H78.3c0,0-2.8,0-4.8,2l-11,11c-2,2-2,2-2,2l0,0L51,25.5h-0.1l-1.8,1.8c0,0-2,2-4,0l-1.8-1.8L35.8,18
		c-2-2-2-2-2-2l0,0c0,0,0,0-0.9-0.9L29,11.2c0,0-2-2-4.8-2H11c0,0-2.8,0-0.8,2l23.7,23.7l0,0c0,0,0,0,2,2l4.4,4.4h0l4.9,4.9
		c2,2,4,0,4,0l3.5-3.5h0.1l7.9-7.9l0,0c0,0,0,0,2-2L92.4,3C92.4,3,94.4,1,91.5,1 M9.4,21.2v24.1c0,0,0,2.8,2.8,2.8h13.2
		c0,0,2.8,0,2.8-2.8v-5.3c0,0,0-2.8-2-4.8L11.4,20.4C11.4,20.4,9.4,18.4,9.4,21.2 M68.1,35.3c-2,2-2,4.8-2,4.8v5.3
		c0,2.8,2.8,2.8,2.8,2.8h13.2c2.8,0,2.8-2.8,2.8-2.8V21.2c0-2.8-2-0.8-2-0.8L68.1,35.3z"/>
	<path class="st0" d="M32.8,58.7c-0.9,0-1.1,0.3-1.1,1.1c0,0.8,0.3,1.1,1.1,1.1c0.9,0,1.1-0.3,1.1-1.1C33.9,59,33.6,58.7,32.8,58.7"
		/>
	<rect x="31.8" y="62.1" class="st0" width="1.9" height="8.7"/>
	<path class="st0" d="M26.4,62c-0.6,0-1.3,0.1-1.9,0.2v-3.5h-1.8v9.8c0,0.6,0,1.1,0.1,1.6c1,0.5,2.3,0.8,3.4,0.8
		c2.9,0,4.1-1.1,4.1-4.5C30.2,63.1,29,62,26.4,62 M26.1,69.5c-0.6,0-1.2-0.1-1.6-0.3c0-0.3-0.1-0.8-0.1-1.2v-4.4
		c0.4-0.1,1-0.2,1.5-0.2c2.3,0,2.4,1.3,2.4,3C28.3,68.1,28.2,69.5,26.1,69.5"/>
	<path class="st0" d="M17.3,62c-2.8,0-3.9,1.2-3.9,4.5c0,3.3,1,4.5,3.9,4.5c2.8,0,3.9-1.3,3.9-4.5C21.1,63.3,20.1,62,17.3,62
		 M17.3,69.5c-1.6,0-2-0.6-2-3c0-2.4,0.4-3,2-3c1.6,0,2,0.7,2,3C19.3,68.8,18.9,69.5,17.3,69.5"/>
	<path class="st0" d="M8.8,62c-1,0-2,0.2-2.8,0.5C5.6,62.2,4.9,62,3.9,62c-1.4,0-2.7,0.3-3.6,0.8c-0.1,0.5-0.1,1-0.1,1.6v6.4H2v-5.9
		c0-0.4,0-0.8,0.1-1.2c0.3-0.2,0.9-0.3,1.3-0.3c1.4,0,1.7,0.7,1.7,2v5.4H7v-5.6c0-0.5,0-1-0.1-1.4c0.5-0.3,1.1-0.4,1.5-0.4
		c1.4,0,1.7,0.7,1.7,2v5.4h1.9v-5.6C11.9,63.5,11.5,62,8.8,62"/>
	<path class="st0" d="M69.9,62c-2.9,0-3.9,1.3-3.9,4.5c0,2.6,0.8,4.5,3.7,4.5c1.7,0,2.8-0.2,3.8-0.3l-0.2-1.4
		c-0.9,0.1-2,0.2-3.1,0.2c-1.3,0-2.2-0.4-2.3-2.1l1.5-0.1c1.2-0.1,3.3-0.3,4.3-0.4c0-0.2,0-0.4,0-0.6C73.7,63.7,73.1,62,69.9,62
		 M72,65.9c-0.6,0.1-1.6,0.2-2.2,0.2L68,66.1c0-1.6,0.2-2.7,2.1-2.7c1.4,0,1.9,0.7,1.9,2C72,65.6,72,65.8,72,65.9"/>
	<path class="st0" d="M83.8,62c-1,0-2,0.2-2.8,0.5c-0.5-0.3-1.2-0.5-2.2-0.5c-1.4,0-2.7,0.3-3.6,0.8c0,0.5-0.1,1-0.1,1.6v6.4H77
		v-5.9c0-0.4,0-0.8,0.1-1.2c0.3-0.2,0.9-0.3,1.3-0.3c1.4,0,1.7,0.7,1.7,2v5.4H82v-5.6c0-0.5,0-1-0.1-1.4c0.5-0.3,1.1-0.4,1.5-0.4
		c1.4,0,1.7,0.7,1.7,2v5.4H87v-5.6C87,63.5,86.6,62,83.8,62"/>
	<path class="st0" d="M63.8,69.5c-0.8,0-1.2-0.3-1.2-1.1v-4.9h1.8v-1.4h-1.8v-2.5L60.8,60v2.2h-1.5v1.4h1.5v5.1
		c0,1.6,0.7,2.4,2.5,2.4c0.4,0,0.9-0.1,1.3-0.1l-0.1-1.3C64.2,69.5,64,69.5,63.8,69.5"/>
	<path class="st0" d="M92.1,65.7c-0.7-0.2-1.8-0.4-1.8-1.3c0-0.9,1.3-0.9,2-0.9c0.8,0,1.5,0.1,2.2,0.2l0.2-1.4
		c-1-0.2-1.9-0.3-3.1-0.3c-1.7,0-3.1,0.5-3.1,2.5c0,1.9,1.3,2.2,2.7,2.7c0.8,0.2,1.7,0.3,1.7,1.3c0,1-1.3,1-2,1
		c-0.7,0-1.7-0.1-2.3-0.2l-0.2,1.4c0.9,0.2,2.1,0.3,3,0.3c1.9,0,3.4-0.6,3.4-2.6C94.8,66.5,93.6,66.2,92.1,65.7"/>
	<path class="st0" d="M55.2,65.7c-0.7-0.2-1.8-0.4-1.8-1.3c0-0.9,1.3-0.9,2-0.9c0.8,0,1.5,0.1,2.2,0.2l0.2-1.4
		c-1-0.2-1.9-0.3-3.1-0.3c-1.7,0-3.1,0.5-3.1,2.5c0,1.9,1.3,2.2,2.7,2.7c0.8,0.2,1.7,0.3,1.7,1.3c0,1-1.3,1-2,1
		c-0.7,0-1.6-0.1-2.3-0.2l-0.2,1.4c0.9,0.2,2.1,0.3,3,0.3c1.9,0,3.4-0.6,3.4-2.6C57.8,66.5,56.6,66.2,55.2,65.7"/>
	<polygon class="st0" points="48.7,62.1 46.8,67.9 44.5,62.1 42.5,62.1 46,70.2 44.7,74 46.5,74 50.6,62.1 	"/>
	<path class="st0" d="M39.1,65.7c-0.7-0.2-1.8-0.4-1.8-1.3c0-0.9,1.3-0.9,2-0.9c0.8,0,1.5,0.1,2.2,0.2l0.2-1.4
		c-1-0.2-1.9-0.3-3.1-0.3c-1.7,0-3.1,0.5-3.1,2.5c0,1.9,1.3,2.2,2.7,2.7c0.8,0.2,1.7,0.3,1.7,1.3c0,1-1.3,1-2,1
		c-0.7,0-1.6-0.1-2.3-0.2l-0.2,1.4c0.9,0.2,2.1,0.3,3,0.3c1.9,0,3.4-0.6,3.4-2.6C41.7,66.5,40.5,66.2,39.1,65.7"/>
</g>
</svg>
